<?xml version="1.0" encoding="utf-8"?>
<!-- Generator: Adobe Illustrator 16.0.0, SVG Export Plug-In . SVG Version: 6.00 Build 0)  -->
<!DOCTYPE svg PUBLIC "-//W3C//DTD SVG 1.1//EN" "http://www.w3.org/Graphics/SVG/1.1/DTD/svg11.dtd">
<svg version="1.1" id="Layer_1" xmlns="http://www.w3.org/2000/svg" xmlns:xlink="http://www.w3.org/1999/xlink" x="0px" y="0px"
	 width="400px" height="200px" viewBox="0 0 400 200" enable-background="new 0 0 400 200" xml:space="preserve">
<path fill="#212962" d="M100.015,149.999c0,27.615-22.384,50-50,50c-27.614,0-50-22.385-50-50c0-27.614,22.386-50,50-50
	C77.63,99.999,100.015,122.385,100.015,149.999"/>
<g>
	<g>
		<g>
			<path fill="none" stroke="#FFFFFF" stroke-width="0.6787" d="M23.565,151.904"/>
		</g>
	</g>
	<g>
		<g>
			<path fill="#FFFFFF" d="M74.833,135.323v-4.457c0-1.081-0.833-1.958-1.862-1.958H20.767c-1.028,0-1.862,0.877-1.862,1.958v4.457
				H74.833z"/>
		</g>
		<g>
			<g>
				<path fill="none" stroke="#FFFFFF" stroke-width="0.6787" d="M45.159,151.904"/>
			</g>
		</g>
		<g>
			<g>
				<path fill="none" stroke="#FFFFFF" stroke-width="0.7788" d="M36.148,149.46"/>
			</g>
		</g>
	</g>
	<g>
		<g>
			<path fill="none" stroke="#FFFFFF" stroke-width="0.7788" d="M23.565,149.46"/>
		</g>
	</g>
</g>
<g>
	<path fill="#FFFFFF" d="M72.324,147.178c0.857,0,1.693,0.088,2.51,0.225v-4.957H18.905v17.129c0,1.078,0.833,1.957,1.862,1.957
		h36.229C57.529,153.527,64.192,147.178,72.324,147.178z M31.177,159.081h-6.991c-0.343,0-0.62-0.289-0.62-0.651v-2.937
		c0-0.359,0.277-0.652,0.62-0.652h6.991c0.346,0,0.624,0.292,0.624,0.652v2.937C31.8,158.792,31.522,159.081,31.177,159.081z"/>
</g>
<path fill="#FFFFFF" d="M72.324,149.155c-7.401,0-13.402,6.001-13.402,13.405c0,7.402,6.001,13.402,13.402,13.402
	c7.404,0,13.405-6,13.405-13.402C85.729,155.156,79.728,149.155,72.324,149.155z M71.162,153.782c0-0.095,0.074-0.171,0.166-0.171
	h1.253c0.092,0,0.167,0.076,0.167,0.171v1.821c0,0.092-0.075,0.164-0.167,0.164h-1.253c-0.092,0-0.166-0.072-0.166-0.164V153.782z
	 M72.582,171.813h-1.253v-1.818h1.253V171.813z M75.427,168.316c-0.777,0.668-1.801,1.039-3.051,1.097
	c-0.033,0.002-0.13,0.005-0.243,0.005c-0.22,0-0.505-0.005-0.505-0.005c-1.3-0.021-2.355-0.399-3.141-1.125
	c-0.788-0.729-1.188-1.761-1.188-3.065c0-0.093,0.074-0.164,0.169-0.164h1.958c0.092,0,0.167,0.071,0.167,0.164
	c0,0.746,0.167,1.323,0.493,1.705c0.321,0.381,0.843,0.582,1.546,0.604c0.002,0,0.539,0.02,0.72,0.002
	c0.645-0.063,1.118-0.234,1.454-0.525c0.343-0.305,0.51-0.748,0.51-1.356c0-0.278-0.054-0.523-0.154-0.721
	c-0.102-0.199-0.242-0.365-0.413-0.494c-0.182-0.133-0.387-0.244-0.607-0.33c-0.227-0.088-0.502-0.174-0.816-0.252
	c-0.104-0.021-0.671-0.135-0.744-0.156c-0.587-0.17-1.083-0.334-1.51-0.502c-0.45-0.178-0.87-0.415-1.244-0.704
	c-0.387-0.295-0.699-0.675-0.925-1.124c-0.229-0.451-0.346-0.995-0.346-1.614c0-0.551,0.109-1.055,0.326-1.503
	c0.218-0.441,0.521-0.82,0.909-1.124c0.379-0.297,0.821-0.524,1.307-0.68c0.485-0.155,1-0.233,1.529-0.233h0.739
	c1.131,0.006,2.075,0.309,2.808,0.897c0.747,0.604,1.125,1.487,1.125,2.625c0,0.092-0.072,0.167-0.167,0.167h-1.959
	c-0.09,0-0.164-0.072-0.167-0.162c-0.021-0.551-0.164-0.969-0.427-1.242c-0.259-0.27-0.667-0.402-1.213-0.402
	c-0.033,0-0.125,0-0.233,0H71.63c-0.601,0-1.053,0.123-1.348,0.366c-0.284,0.235-0.43,0.624-0.43,1.153
	c0,0.451,0.152,0.779,0.464,1.006c0.338,0.245,0.792,0.439,1.353,0.585c0.063,0.015,0.742,0.188,0.742,0.188
	c0.608,0.162,1.157,0.336,1.627,0.522c0.477,0.187,0.912,0.431,1.295,0.718c0.389,0.295,0.706,0.674,0.932,1.123
	c0.229,0.452,0.346,0.996,0.346,1.614C76.611,166.65,76.213,167.639,75.427,168.316z"/>
<g>
	<path fill="#212962" d="M200.015,149.999c0,27.614-22.384,50.001-49.999,50.001c-27.614,0-50.001-22.387-50.001-50.001
		c0-27.615,22.387-49.999,50.001-49.999C177.63,100,200.015,122.384,200.015,149.999"/>
</g>
<path fill="#212962" d="M300.016,149.997c0,27.618-22.386,50.001-50,50.001c-27.615,0-50-22.384-50-50.001
	c0-27.614,22.385-49.999,50-49.999C277.63,99.998,300.016,122.383,300.016,149.997"/>
<path fill="#FFFFFF" d="M249.309,151.436c0-0.099-0.037-0.188-0.092-0.27c-0.014-0.021-0.029-0.037-0.047-0.057
	c-0.02-0.021-0.029-0.049-0.053-0.066c-0.049-0.036-0.105-0.057-0.164-0.075c-0.008-0.002-0.012-0.011-0.02-0.012l-0.021-0.005
	c-0.002-0.001-0.002-0.003-0.004-0.003l-17.183-4.38c-0.082-0.021-0.166-0.021-0.246,0l-17.231,4.38
	c-0.001,0-0.003,0.002-0.005,0.003l-0.02,0.005c-0.009,0.002-0.014,0.011-0.021,0.015c-0.057,0.018-0.112,0.036-0.161,0.072
	c-0.022,0.02-0.034,0.044-0.053,0.064s-0.032,0.037-0.048,0.059c-0.053,0.081-0.092,0.171-0.092,0.27c0,0.002,0,0.002,0,0.002
	s0,0,0,0.002l0,0v18.123c0,0.228,0.152,0.429,0.373,0.483l16.764,4.315v-19.165l-14.62-3.755l15.233-3.875l15.196,3.875l-8.16,2.1
	l-6.651,1.712v19.155l16.949-4.362c0.221-0.056,0.375-0.257,0.375-0.483v-18.123l0,0c0-0.002,0-0.002,0-0.002V151.436z
	 M233.699,158.094l2.546-0.699v1.649l-2.546,0.702V158.094z M243.988,162.377l-10.289,2.648v-4.78l10.289-2.647V162.377z"/>
<path fill="#FFFFFF" d="M267.788,126.871c0-0.1-0.037-0.188-0.095-0.27c-0.014-0.021-0.028-0.037-0.045-0.057
	c-0.02-0.021-0.03-0.049-0.053-0.066c-0.047-0.035-0.102-0.053-0.158-0.069c-0.011-0.004-0.015-0.017-0.025-0.019l-17.208-4.386
	c-0.08-0.021-0.164-0.021-0.246,0l-17.255,4.386c-0.014,0.002-0.018,0.015-0.029,0.019c-0.053,0.018-0.107,0.034-0.152,0.069
	c-0.021,0.019-0.033,0.045-0.054,0.064c-0.018,0.02-0.032,0.036-0.049,0.059c-0.053,0.082-0.092,0.17-0.092,0.27
	c0,0-0.002,0.001-0.002,0.003l0,0v0.001v18.123c0,0.229,0.153,0.428,0.377,0.484l16.765,4.314v-19.166l-14.624-3.754l15.237-3.873
	l15.195,3.871l-14.811,3.813v19.156l16.948-4.363c0.219-0.057,0.374-0.256,0.374-0.483v-18.123v-0.001l0,0
	C267.788,126.872,267.788,126.872,267.788,126.871z M252.176,133.53l2.549-0.7v1.65l-2.549,0.701V133.53z M262.467,137.814
	l-10.291,2.646v-4.779l10.291-2.647V137.814z"/>
<path fill="#FFFFFF" d="M286.549,150.938c0-0.1-0.039-0.188-0.092-0.271c-0.016-0.021-0.029-0.037-0.049-0.058
	s-0.029-0.047-0.053-0.064c-0.047-0.037-0.103-0.057-0.16-0.075c-0.008-0.003-0.012-0.013-0.021-0.015l-0.021-0.006l-17.185-4.381
	c-0.082-0.021-0.168-0.021-0.245,0l-17.256,4.387c-0.012,0.002-0.018,0.014-0.027,0.018c-0.055,0.017-0.108,0.035-0.155,0.072
	c-0.021,0.018-0.035,0.043-0.054,0.063c-0.018,0.021-0.033,0.037-0.049,0.062c-0.053,0.08-0.092,0.169-0.092,0.269c0,0,0,0,0,0.002
	l0,0l0,0v18.123c0,0.229,0.154,0.428,0.373,0.483l16.766,4.315v-19.168l-14.621-3.752l15.238-3.873l15.191,3.873l-14.809,3.812
	v19.155l16.945-4.362c0.223-0.056,0.375-0.253,0.375-0.483v-18.123l0,0l0,0C286.549,150.938,286.549,150.938,286.549,150.938z
	 M270.939,157.595l2.545-0.7v1.651l-2.545,0.698V157.595z M281.229,161.881l-10.289,2.646v-4.78l10.289-2.647V161.881z"/>
<path fill="#212962" d="M400.015,149.997c0,27.618-22.387,50.001-50.002,50.001c-27.614,0-49.997-22.383-49.997-50.001
	c0-27.614,22.383-49.999,49.997-49.999C377.628,99.998,400.015,122.383,400.015,149.997"/>
<path fill="#FFFFFF" d="M345.884,168.465v-20.934h-6.897v-7.21h6.897v-7.833c0-4.691,4.258-7.846,7.688-7.846h7.729v6.562h-3.563
	c-1.754,0-4.097,1.427-4.097,3.179v5.938h6.959v7.21h-6.959v20.934H345.884z"/>
<path fill="#212962" d="M100.015,50c0,27.614-22.385,50.001-50,50.001c-27.615,0-50-22.387-50-50.001s22.385-50,50-50
	C77.63,0,100.015,22.386,100.015,50"/>
<path fill="#FFFFFF" d="M77.751,29.99H25.968c-1.329,0-2.411,1.083-2.411,2.411v29.954c0,1.329,1.083,2.409,2.411,2.409h22.656
	v5.967H38.057c-0.42,0-0.761,0.34-0.761,0.76v2.667c0,0.418,0.341,0.762,0.761,0.762h27.605c0.422,0,0.761-0.344,0.761-0.762v-2.667
	c0-0.42-0.339-0.76-0.761-0.76H55.096v-5.967h6.886c0.912,0,1.65-0.739,1.65-1.647c0-0.911-0.738-1.651-1.65-1.651H26.855V33.288
	h50.01v13.083c0,0.912,0.738,1.65,1.648,1.65c0.91,0,1.648-0.738,1.648-1.65v-13.97C80.162,31.073,79.08,29.99,77.751,29.99z"/>
<g>
	<g>
		<path fill="#FFFFFF" d="M90.343,61.261l-0.34-2.024l-0.551-2.328l-4.961,0.437l2.247-4.439l-1.673-1.189l-2.036-1.258
			l-3.198,3.817l-1.551-4.729l-2.023,0.342l-2.329,0.55l0.436,4.96l-4.439-2.247l-1.188,1.674l-1.256,2.034l3.814,3.197
			l-4.728,1.551l0.342,2.024l0.551,2.33l4.96-0.437l-2.247,4.439l1.671,1.188l2.036,1.259l3.2-3.817l1.549,4.73l2.024-0.344
			l2.329-0.548l-0.438-4.962l4.441,2.247l1.188-1.675l1.257-2.034l-3.817-3.198L90.343,61.261z M79.265,65.394
			c-2.185,0.445-4.318-0.963-4.766-3.146c-0.447-2.187,0.96-4.32,3.144-4.77c2.185-0.446,4.32,0.961,4.767,3.148
			C82.858,62.811,81.45,64.943,79.265,65.394z"/>
		<path fill="#FFFFFF" d="M77.079,68.045c0.034,0,0.07,0.005,0.104,0.012c0.196,0.039,0.356,0.18,0.419,0.37l1.401,4.278l1.56-0.266
			l1.83-0.432l-0.395-4.486c-0.017-0.198,0.075-0.392,0.239-0.502c0.164-0.114,0.378-0.126,0.556-0.037l4.02,2.032l0.916-1.286
			l0.986-1.601l-3.452-2.895c-0.153-0.128-0.225-0.328-0.187-0.523c0.036-0.195,0.179-0.358,0.369-0.42l4.279-1.401l-0.263-1.559
			l-0.434-1.831l-4.487,0.397c-0.193,0.02-0.39-0.075-0.503-0.243c-0.111-0.164-0.126-0.377-0.036-0.555l2.034-4.017l-1.288-0.917
			l-1.602-0.988l-2.894,3.452c-0.128,0.152-0.331,0.228-0.525,0.189s-0.356-0.182-0.419-0.37l-1.401-4.28l-1.558,0.266l-1.83,0.432
			l0.394,4.486c0.017,0.198-0.073,0.394-0.239,0.504c-0.165,0.111-0.377,0.127-0.556,0.035l-4.018-2.032l-0.916,1.288l-0.987,1.599
			l3.451,2.895c0.152,0.128,0.225,0.331,0.187,0.527c-0.038,0.193-0.179,0.355-0.368,0.418l-4.278,1.401l0.264,1.557l0.432,1.833
			l4.487-0.395c0.203-0.021,0.391,0.072,0.504,0.24c0.111,0.164,0.126,0.375,0.035,0.555l-2.034,4.018l1.288,0.915l1.6,0.988
			l2.895-3.452C76.762,68.117,76.918,68.045,77.079,68.045z M78.451,66.025c-2.167,0-4.057-1.544-4.491-3.67
			c-0.246-1.2-0.009-2.425,0.666-3.447c0.674-1.021,1.707-1.719,2.907-1.965c0.305-0.063,0.617-0.098,0.926-0.098
			c2.167,0,4.056,1.543,4.492,3.669c0.245,1.202,0.009,2.426-0.667,3.448c-0.675,1.025-1.706,1.722-2.907,1.968
			C79.07,65.991,78.76,66.025,78.451,66.025z"/>
	</g>
</g>
<g>
	<polygon fill="#FFFFFF" points="31.207,56.37 63.652,56.37 58.037,43.12 56.496,47.195 49.707,37.578 40.897,51.379 38.108,48.736 
			"/>
	<circle fill="#FFFFFF" cx="37.447" cy="39.596" r="2.092"/>
</g>
<path fill="#212962" d="M200.015,49.998c0,27.615-22.386,50.001-50,50.001c-27.616,0-50-22.386-50-50.001
	c0-27.614,22.385-49.999,50-49.999C177.629-0.001,200.015,22.383,200.015,49.998"/>
<path fill="#ED2B3A" d="M178.39,26.291h0.664H178.39z"/>
<g>
	<g>
		<path fill="#FFFFFF" d="M133.427,64.084c0,0.097-0.036,0.192-0.109,0.265c-0.147,0.145-0.384,0.145-0.529,0l-4.792-4.793
			c-0.148-0.146-0.148-0.383,0-0.528c0.145-0.146,0.381-0.146,0.529,0l4.792,4.793C133.391,63.893,133.427,63.988,133.427,64.084z"
			/>
	</g>
	<g>
		<path fill="#FFFFFF" d="M137.642,64.042c0,0.095-0.036,0.191-0.108,0.263c-0.148,0.146-0.384,0.146-0.529,0l-9.808-9.808
			c-0.145-0.146-0.145-0.381,0-0.528c0.147-0.146,0.384-0.146,0.529,0l9.808,9.808C137.606,63.849,137.642,63.944,137.642,64.042z"
			/>
	</g>
</g>
<path fill="#FFFFFF" d="M167.771,41.933h-16.253c-1.65,0-2.988,1.338-2.988,2.99v32.133c0,1.649,1.338,2.987,2.988,2.987h16.253
	c1.652,0,2.99-1.338,2.99-2.987V44.922C170.761,43.271,169.423,41.933,167.771,41.933z M157.339,43.809
	c0-0.202,0.324-0.362,0.73-0.362h3.149c0.406,0,0.73,0.16,0.73,0.362v0.84c0,0.199-0.324,0.361-0.73,0.361h-3.149
	c-0.406,0-0.73-0.162-0.73-0.361V43.809z M161.514,76.428c0,0.327-0.264,0.59-0.59,0.59h-2.558c-0.326,0-0.592-0.264-0.592-0.59
	v-1.379c0-0.324,0.266-0.589,0.592-0.589h2.558c0.326,0,0.59,0.265,0.59,0.589V76.428z M168.534,71.076l-17.78-0.002V46.303h17.782
	L168.534,71.076z"/>
<g>
	<path fill="#FFFFFF" d="M158.939,65.472c-0.592,0-1.165-0.235-1.585-0.658l-3.421-3.419c-0.874-0.876-0.874-2.294,0-3.17
		c0.877-0.875,2.295-0.875,3.17,0l1.625,1.627l4.998-6.408c0.761-0.975,2.169-1.15,3.145-0.388c0.976,0.763,1.15,2.168,0.389,3.146
		l-6.553,8.406c-0.396,0.506-0.988,0.82-1.63,0.86C159.031,65.47,158.985,65.472,158.939,65.472z"/>
</g>
<path fill="#FFFFFF" d="M183.052,24.804H119.56c-1.143,0-2.07,0.927-2.07,2.07v40.723c0,1.143,0.927,2.071,2.07,2.071h31.194v-2.071
	h-27.459l0.002-40.724l51.536,0.001L174.832,67.6h-5.72v2.069h13.941c1.143,0,2.07-0.928,2.07-2.071V26.875
	C185.123,25.731,184.195,24.804,183.052,24.804z M119.561,25.838v1.036l0,0V25.838z M120.977,48.73
	c-0.826,0-1.496-0.668-1.496-1.495c0-0.826,0.669-1.493,1.496-1.493c0.826,0,1.493,0.667,1.493,1.493
	C122.469,48.062,121.802,48.73,120.977,48.73z M182.375,49.229c0,0.508-0.413,0.918-0.92,0.918h-2.147
	c-0.508,0-0.921-0.41-0.921-0.918v-3.986c0-0.506,0.413-0.918,0.921-0.918h2.147c0.507,0,0.92,0.412,0.92,0.918V49.229z"/>
<g>
	<path fill="#212962" d="M300.016,49.999c0,27.616-22.387,50-50.002,50c-27.613,0-49.999-22.384-49.999-50
		c0-27.614,22.385-50,49.999-50C277.628-0.001,300.016,22.384,300.016,49.999"/>
</g>
<g>
	<rect x="231.477" y="5.02" fill="#FFFFFF" width="1.125" height="36.47"/>
</g>
<path fill="#FFFFFF" d="M241.613,48.618c-0.1,0-0.192-0.056-0.241-0.145l-5.185-9.182h-12.604l-8.508,14.736l8.508,14.737H240.6
	l8.51-14.737l-3.127-5.41L241.613,48.618L241.613,48.618z M232.09,42.137c0.879,0,1.592,0.712,1.592,1.591
	c0,0.878-0.713,1.59-1.592,1.59c-0.878,0-1.59-0.712-1.59-1.59C230.5,42.849,231.211,42.137,232.09,42.137z M226.382,62.764
	L226.37,48.62l2.478-0.002l0.008,12.005l7.191-0.007l0.001,2.141L226.382,62.764z"/>
<path fill="#FFFFFF" d="M255.422,46.232c-0.051-0.092-0.051-0.202,0-0.29l8.337-14.896c0.052-0.09,0.146-0.146,0.246-0.146h4.339
	l-8.255-14.297h-17.916l-8.955,15.514l8.955,15.515h14.031L255.422,46.232z M251.133,19.598c0.926,0,1.676,0.748,1.676,1.674
	c0,0.924-0.75,1.674-1.676,1.674s-1.676-0.75-1.676-1.674C249.457,20.346,250.207,19.598,251.133,19.598z M255.061,40.238
	c-0.904,0.743-2.093,1.14-3.522,1.175c-0.117,0.004-0.834-0.022-0.863-0.024c-0.913-0.036-1.716-0.225-2.397-0.557
	c-0.432-0.21-0.822-0.483-1.164-0.814c-0.879-0.85-1.309-2.039-1.274-3.53c0-0.036,0.015-0.066,0.04-0.088
	c0.025-0.024,0.057-0.038,0.09-0.038l2.272,0.054c0.034,0.003,0.067,0.015,0.088,0.039c0.022,0.025,0.034,0.059,0.034,0.09
	c-0.021,0.884,0.16,1.566,0.539,2.033c0.375,0.465,0.992,0.722,1.824,0.767c0.01,0.002,0.637,0.033,0.842,0.018
	c0.76-0.05,1.328-0.241,1.736-0.583c0.416-0.35,0.635-0.889,0.652-1.605c0.008-0.337-0.049-0.631-0.166-0.874
	c-0.117-0.243-0.281-0.445-0.482-0.604c-0.219-0.165-0.451-0.302-0.713-0.411c-0.264-0.108-0.58-0.216-0.943-0.316
	c-0.072-0.018-0.773-0.175-0.857-0.2c-0.668-0.209-1.234-0.413-1.73-0.623c-0.504-0.215-0.979-0.494-1.405-0.838
	c-0.433-0.343-0.774-0.783-1.022-1.302c-0.248-0.521-0.369-1.144-0.35-1.851c0.014-0.625,0.154-1.196,0.41-1.699
	c0.258-0.501,0.617-0.924,1.061-1.258c0.445-0.326,0.956-0.577,1.516-0.74c0.558-0.163,1.151-0.238,1.758-0.225
	c0,0,0.807,0.02,0.857,0.021c1.295,0.038,2.36,0.404,3.186,1.102c0.834,0.704,1.24,1.72,1.209,3.016
	c-0.002,0.07-0.059,0.124-0.129,0.124l-2.271-0.055c-0.068-0.003-0.123-0.057-0.123-0.123c-0.012-0.657-0.17-1.161-0.477-1.495
	c-0.307-0.33-0.793-0.509-1.444-0.524c-0.11-0.006-0.856-0.019-0.856-0.019c-0.711-0.019-1.252,0.116-1.615,0.402
	c-0.354,0.276-0.537,0.739-0.549,1.375c-0.019,0.547,0.158,0.95,0.533,1.236c0.389,0.295,0.918,0.541,1.574,0.724l0.85,0.238
	c0.711,0.207,1.34,0.424,1.867,0.647c0.535,0.228,1.029,0.515,1.463,0.859c0.439,0.35,0.787,0.788,1.031,1.304
	c0.248,0.52,0.365,1.141,0.353,1.85C256.452,38.368,255.973,39.486,255.061,40.238z"/>
<g>
	
		<rect x="259.173" y="19.55" transform="matrix(-0.0183 -0.9998 0.9998 -0.0183 257.6047 293.1568)" fill="#FFFFFF" width="27.096" height="1.126"/>
</g>
<g>
	<polygon fill="#FFFFFF" points="250.578,18.997 250.027,0.379 251.127,0.352 251.678,18.971 	"/>
</g>
<path fill="#FFFFFF" d="M281.313,31.746h-16.677l-8.337,14.442l8.337,14.441h16.677l8.34-14.441L281.313,31.746z M272.977,34.532
	c0.861,0,1.56,0.699,1.56,1.559c0,0.863-0.698,1.56-1.56,1.56s-1.56-0.697-1.56-1.56C271.417,35.231,272.115,34.532,272.977,34.532z
	 M278.047,53.664l-0.018-9.554l-0.037,0.002l-3.412,9.556l-1.788,0.003l-3.446-9.544l-0.035,0.001l0.02,9.549l-2.064,0.004
	l-0.021-12.376l3.05-0.005l3.433,9.685h0.035l3.313-9.695l3.015-0.005l0.021,12.376L278.047,53.664z"/>
<path fill="#212962" d="M400.015,49.998c0,27.616-22.387,50-50.002,50c-27.614,0-49.997-22.385-49.997-50
	c0-27.615,22.383-50,49.997-50C377.628-0.002,400.015,22.383,400.015,49.998"/>
<g>
	<path fill="#FFFFFF" d="M348.739,29.824c-0.015-0.424-0.265-0.807-0.646-0.992l-10.151-4.854c-0.384-0.186-0.839-0.138-1.179,0.121
		l-9.639,7.336c-0.145,0.11-0.262,0.25-0.336,0.414l-15.748,32.925c-0.271,0.567-0.031,1.243,0.533,1.516l20.131,9.626
		c0.568,0.272,1.244,0.031,1.516-0.532l15.744-32.927c0.078-0.163,0.115-0.342,0.113-0.521L348.739,29.824z M329.522,67.803
		c-0.693-0.342-1.257-0.742-1.685-1.203c-0.432-0.462-0.77-0.964-1.012-1.507c-0.244-0.544-0.422-1.104-0.533-1.677
		c-0.109-0.574-0.229-1.317-0.365-2.231c-0.008-0.018-0.026-0.195-0.063-0.535c-0.062-0.468-0.115-0.854-0.164-1.155
		c-0.047-0.301-0.131-0.606-0.25-0.914c-0.119-0.306-0.279-0.589-0.48-0.851c-0.198-0.26-0.459-0.468-0.772-0.625
		c-0.578-0.283-1.123-0.34-1.642-0.171c-0.512,0.17-0.905,0.531-1.18,1.083c-0.174,0.353-0.24,0.696-0.199,1.03
		c0.039,0.334,0.158,0.646,0.359,0.934c0.201,0.287,0.449,0.551,0.75,0.788c0.301,0.235,0.625,0.438,0.963,0.605l-1.184,2.396
		c-1.502-0.74-2.519-1.73-3.039-2.969c-0.521-1.235-0.435-2.56,0.262-3.969c0.279-0.564,0.631-1.059,1.061-1.483
		c0.429-0.424,0.908-0.75,1.437-0.98c0.529-0.228,1.09-0.335,1.684-0.319c0.593,0.015,1.181,0.166,1.769,0.456
		c0.848,0.417,1.459,0.958,1.84,1.622c0.383,0.661,0.654,1.473,0.809,2.426c0.045,0.271,0.099,0.692,0.166,1.265
		c0.095,0.849,0.201,1.55,0.322,2.102c0.125,0.549,0.322,1.081,0.594,1.595l2.877-5.833l2.152,1.061L329.522,67.803z M337.44,51.765
		l-3.813,0.484l1.932,3.323l-1.381,2.802L331,52.728l-5.797,0.864l1.408-2.854l3.172-0.429l-1.597-2.762l1.365-2.767l2.789,5.103
		l6.508-0.975L337.44,51.765z M341.024,44.504l-8-3.951l-1.533,3.101l-1.885-0.93c0.489-0.998,0.704-1.916,0.635-2.754
		c-0.068-0.839-0.502-1.528-1.301-2.069l0.981-1.992L342.26,42L341.024,44.504z M342.886,29.644
		c-0.305,0.635-1.065,0.902-1.705,0.599c-0.633-0.303-0.903-1.066-0.6-1.702c0.305-0.636,1.07-0.905,1.703-0.601
		C342.921,28.245,343.19,29.007,342.886,29.644z"/>
	<g>
		<path fill="#FFFFFF" d="M389.337,36.864l-32.715-16.179c-0.16-0.08-0.34-0.119-0.519-0.118l-12.114,0.181
			c-0.426,0.008-0.813,0.252-0.998,0.631l-2.031,4.103l6.092-2.774c0.5-0.226,1.109-0.15,1.539,0.187l9.295,7.355
			c0.248-0.156,0.515-0.271,0.808-0.321c0.34-0.058,0.688-0.058,1.047,0.003c0.356,0.06,0.703,0.166,1.037,0.324
			c0.385,0.182,0.729,0.399,1.03,0.646c0.3,0.249,0.537,0.528,0.712,0.837c0.176,0.309,0.27,0.646,0.282,1.012
			c0.017,0.366-0.071,0.747-0.26,1.146l-1.514-0.717c0.168-0.408,0.164-0.75-0.011-1.027c-0.172-0.278-0.469-0.516-0.889-0.712
			c-0.291-0.14-0.576-0.191-0.852-0.16c-0.203,0.023-0.367,0.114-0.49,0.271l0.746,1.641c0.166,0.141,0.367,0.31,0.61,0.512
			c0.021,0.009,0.066,0.047,0.142,0.114c0.018,0.016,0.035,0.028,0.055,0.038c0.211,0.172,0.4,0.343,0.564,0.51
			c0.164,0.168,0.321,0.378,0.471,0.632c0.148,0.253,0.234,0.542,0.26,0.867c0.025,0.325-0.047,0.667-0.215,1.025
			c-0.035,0.069-0.078,0.125-0.115,0.188l0.416,0.914l4.935-4.747l1.604,0.76l-0.705,8.375l-1.623-0.77l0.211-1.838l-2.661-1.258
			l-1.041,1.051l6.715,14.747l9.285,4.593c0.563,0.276,1.239,0.046,1.52-0.515l9.896-20.004
			C390.128,37.822,389.899,37.141,389.337,36.864z M373.204,45.05l-5.033-2.379l3.367-7.116l1.563,0.739l-2.743,5.8l3.467,1.64
			L373.204,45.05z M382.146,42.183l-3.757-1.778l-0.723,1.526l3.449,1.629l-0.576,1.216l-3.447-1.63l-0.826,1.743l3.837,1.815
			l-0.621,1.317l-5.402-2.556l3.367-7.116l5.319,2.519L382.146,42.183z"/>
		<polygon fill="#FFFFFF" points="366.622,35.375 366.603,35.365 364.44,37.538 366.284,38.411 		"/>
	</g>
	<g>
		<path fill="#FFFFFF" d="M350.794,53.18c0.131,0.295,0.26,0.561,0.387,0.799c0.125,0.238,0.279,0.47,0.461,0.694
			c0.183,0.224,0.39,0.386,0.621,0.486c0.232,0.102,0.48,0.094,0.74-0.022c0.271-0.12,0.445-0.3,0.529-0.542
			c0.084-0.239,0.104-0.504,0.061-0.79c-0.045-0.285-0.112-0.555-0.205-0.807c-0.094-0.253-0.205-0.526-0.336-0.821
			c-0.125-0.281-0.248-0.536-0.367-0.764c-0.122-0.228-0.274-0.453-0.461-0.676c-0.186-0.223-0.395-0.383-0.625-0.481
			c-0.229-0.097-0.481-0.085-0.748,0.033c-0.264,0.117-0.436,0.293-0.518,0.53c-0.082,0.237-0.102,0.496-0.061,0.777
			c0.045,0.284,0.11,0.547,0.198,0.793C350.563,52.636,350.671,52.9,350.794,53.18z"/>
		<path fill="#FFFFFF" d="M353.44,62.988c-0.15-0.337-0.328-0.638-0.539-0.906c-0.209-0.268-0.443-0.484-0.705-0.647
			c-0.263-0.162-0.552-0.256-0.867-0.278c-0.32-0.022-0.654,0.042-1.004,0.198c-0.351,0.155-0.621,0.358-0.818,0.611
			c-0.194,0.251-0.319,0.528-0.375,0.832c-0.053,0.303-0.051,0.623,0.008,0.957c0.06,0.334,0.162,0.67,0.312,1.006
			c0.145,0.323,0.315,0.612,0.521,0.87c0.205,0.26,0.439,0.467,0.705,0.629c0.267,0.162,0.556,0.252,0.869,0.274
			c0.313,0.021,0.644-0.048,0.992-0.203c0.348-0.156,0.623-0.359,0.818-0.609c0.196-0.252,0.319-0.528,0.377-0.829
			c0.057-0.299,0.057-0.609,0.004-0.936C353.683,63.633,353.583,63.31,353.44,62.988z"/>
		<path fill="#FFFFFF" d="M362.192,50.122c0.069,0.159,0.137,0.293,0.198,0.407c0.062,0.113,0.14,0.222,0.23,0.326
			c0.094,0.104,0.203,0.175,0.326,0.213c0.123,0.039,0.256,0.027,0.397-0.037c0.146-0.064,0.244-0.154,0.297-0.272
			c0.056-0.116,0.076-0.244,0.066-0.381c-0.012-0.137-0.037-0.271-0.08-0.405c-0.045-0.132-0.098-0.268-0.156-0.405
			c-0.059-0.13-0.121-0.256-0.188-0.375c-0.063-0.12-0.146-0.233-0.242-0.339c-0.1-0.105-0.205-0.18-0.322-0.221
			c-0.114-0.041-0.244-0.033-0.381,0.028c-0.143,0.063-0.246,0.153-0.311,0.267c-0.063,0.114-0.088,0.239-0.078,0.377
			c0.01,0.135,0.035,0.27,0.076,0.399C362.073,49.833,362.126,49.973,362.192,50.122z"/>
		<path fill="#FFFFFF" d="M355.685,49.116c0.064,0.15,0.13,0.28,0.189,0.392c0.063,0.108,0.139,0.212,0.229,0.309
			c0.089,0.098,0.193,0.163,0.313,0.196c0.121,0.032,0.252,0.016,0.396-0.048c0.146-0.064,0.246-0.151,0.302-0.262
			c0.057-0.111,0.08-0.232,0.073-0.363c-0.006-0.13-0.03-0.259-0.071-0.386c-0.039-0.127-0.092-0.259-0.152-0.396
			c-0.057-0.13-0.121-0.258-0.188-0.385c-0.066-0.126-0.152-0.245-0.252-0.357c-0.103-0.113-0.212-0.191-0.33-0.241
			c-0.121-0.048-0.248-0.042-0.39,0.019c-0.143,0.064-0.242,0.156-0.299,0.275c-0.059,0.119-0.082,0.25-0.07,0.396
			c0.009,0.144,0.035,0.286,0.08,0.422C355.563,48.822,355.616,48.965,355.685,49.116z"/>
		<path fill="#FFFFFF" d="M373.149,65.208l-15.128-33.216c-0.071-0.164-0.188-0.309-0.325-0.42l-9.5-7.518
			c-0.334-0.263-0.789-0.318-1.175-0.144l-3.461,1.577l5.834,2.79c0.505,0.243,0.826,0.74,0.845,1.299l0.34,12.113
			c0.006,0.241-0.047,0.476-0.148,0.685l-4.188,8.755l0.893-0.396l0.511,1.148l-2.234,0.993l-0.439,0.916l0.259,1.033l0.026,0.009
			c0.101-0.27,0.238-0.495,0.422-0.674c0.185-0.178,0.412-0.331,0.688-0.452c0.334-0.148,0.658-0.221,0.973-0.216
			c0.316,0.005,0.615,0.073,0.902,0.206c0.559,0.268,0.983,0.736,1.278,1.401c0.152,0.342,0.23,0.692,0.234,1.055
			c0.006,0.361-0.061,0.708-0.197,1.039c-0.133,0.33-0.327,0.625-0.584,0.887c-0.256,0.262-0.557,0.471-0.901,0.625
			c-0.343,0.151-0.683,0.247-1.021,0.289c-0.342,0.042-0.676,0.023-0.998-0.058c-0.319-0.079-0.608-0.226-0.869-0.44
			c-0.26-0.213-0.471-0.491-0.631-0.834l1.394-0.62c0.17,0.293,0.399,0.488,0.696,0.584c0.291,0.096,0.591,0.078,0.892-0.056
			c0.354-0.157,0.58-0.416,0.682-0.775c0.104-0.358,0.076-0.717-0.086-1.079c-0.164-0.372-0.408-0.631-0.731-0.778
			c-0.322-0.145-0.664-0.138-1.025,0.021c-0.242,0.108-0.422,0.239-0.541,0.395c-0.119,0.153-0.207,0.361-0.264,0.621l-1.254,0.557
			l-0.224-0.897l-1.184,2.476l7.869,17.284c0.26,0.572,0.936,0.823,1.506,0.563l20.307-9.248
			C373.157,66.453,373.409,65.776,373.149,65.208z M361.003,49.002c0.125-0.475,0.463-0.834,1.012-1.079
			c0.295-0.131,0.566-0.193,0.82-0.189c0.252,0.008,0.479,0.068,0.68,0.186c0.201,0.119,0.384,0.281,0.541,0.489
			c0.158,0.207,0.302,0.453,0.427,0.731c0.247,0.562,0.313,1.082,0.188,1.556c-0.121,0.473-0.457,0.831-1.006,1.076
			c-0.293,0.131-0.568,0.193-0.82,0.188c-0.252-0.006-0.479-0.066-0.682-0.186c-0.201-0.118-0.381-0.279-0.543-0.486
			c-0.164-0.205-0.308-0.449-0.433-0.731C360.938,49.995,360.878,49.477,361.003,49.002z M359.593,44.936l0.834-0.371l-0.797,9.094
			l-0.854,0.379L359.593,44.936z M354.474,47.957c0.121-0.488,0.455-0.854,1.007-1.098c0.293-0.131,0.567-0.192,0.823-0.184
			c0.254,0.008,0.482,0.073,0.687,0.199c0.205,0.124,0.389,0.294,0.551,0.508c0.16,0.214,0.303,0.461,0.428,0.742
			c0.25,0.563,0.313,1.071,0.187,1.526c-0.127,0.456-0.467,0.807-1.021,1.055c-0.569,0.253-1.057,0.268-1.463,0.044
			c-0.404-0.224-0.736-0.626-0.994-1.208C354.423,48.973,354.354,48.443,354.474,47.957z M349.403,53.8
			c-0.289-0.647-0.47-1.23-0.541-1.746c-0.072-0.515-0.058-0.961,0.051-1.338c0.106-0.375,0.283-0.693,0.527-0.95
			c0.245-0.26,0.545-0.465,0.897-0.624c0.359-0.159,0.717-0.246,1.074-0.259c0.354-0.013,0.707,0.069,1.063,0.243
			c0.355,0.176,0.699,0.463,1.033,0.861c0.334,0.399,0.646,0.924,0.935,1.571c0.293,0.661,0.479,1.255,0.555,1.779
			c0.078,0.525,0.063,0.979-0.041,1.356c-0.105,0.381-0.283,0.701-0.531,0.961c-0.25,0.258-0.555,0.469-0.912,0.629
			c-0.354,0.156-0.709,0.238-1.063,0.248c-0.355,0.01-0.709-0.074-1.063-0.25c-0.354-0.176-0.696-0.468-1.037-0.877
			C350.013,54.995,349.696,54.46,349.403,53.8z M355.3,65.4c-0.16,0.488-0.422,0.932-0.783,1.326
			c-0.36,0.396-0.819,0.717-1.375,0.962c-0.557,0.248-1.1,0.374-1.637,0.378s-1.037-0.096-1.502-0.304
			c-0.467-0.208-0.885-0.51-1.256-0.903c-0.371-0.394-0.674-0.853-0.91-1.38c-0.24-0.542-0.383-1.085-0.43-1.633
			c-0.045-0.546,0.01-1.063,0.164-1.555c0.155-0.492,0.412-0.935,0.774-1.33c0.361-0.394,0.82-0.716,1.375-0.963
			c0.558-0.246,1.103-0.372,1.64-0.376c0.534-0.004,1.039,0.1,1.512,0.314c0.473,0.211,0.893,0.518,1.264,0.918
			c0.371,0.402,0.679,0.875,0.918,1.415c0.236,0.53,0.375,1.059,0.418,1.593C355.517,64.396,355.458,64.909,355.3,65.4z
			 M359.386,64.703l-1.612,0.718l-3.265-7.342l5.162-2.295l0.603,1.36l-3.546,1.576l0.755,1.695l3.071-1.366l0.562,1.254
			l-3.076,1.366L359.386,64.703z M365.483,61.994l-1.615,0.717l-3.267-7.341l5.164-2.296l0.605,1.36l-3.547,1.576l0.752,1.695
			l3.074-1.366l0.557,1.254l-3.074,1.366L365.483,61.994z"/>
	</g>
</g>
<g>
	<g>
		<g>
			<path fill="#FFFFFF" d="M166.167,143.187l-0.625-3.719l-1.012-4.275l-9.113,0.802l4.128-8.153l-3.075-2.185l-3.739-2.311
				l-5.875,7.013l-2.851-8.688l-3.715,0.63l-4.277,1.008l0.8,9.113l-8.154-4.13l-2.182,3.077l-2.307,3.736l7.006,5.874l-8.686,2.849
				l0.629,3.717l1.012,4.28l9.111-0.804l-4.128,8.155l3.07,2.182l3.74,2.314l5.878-7.011l2.845,8.688l3.717-0.633l4.28-1.005
				l-0.806-9.117l8.157,4.128l2.183-3.076l2.309-3.737l-7.011-5.875L166.167,143.187z M145.818,150.78
				c-4.015,0.816-7.934-1.769-8.756-5.78c-0.822-4.019,1.764-7.937,5.775-8.762c4.015-0.819,7.936,1.766,8.758,5.782
				C152.416,146.033,149.831,149.951,145.818,150.78z"/>
			<path fill="#FFFFFF" d="M141.801,155.649c0.062,0,0.128,0.009,0.191,0.021c0.36,0.071,0.654,0.33,0.769,0.68l2.574,7.859
				l2.865-0.488l3.362-0.795l-0.725-8.239c-0.033-0.364,0.138-0.722,0.438-0.922c0.301-0.21,0.696-0.233,1.022-0.068l7.384,3.731
				l1.683-2.361l1.812-2.941l-6.34-5.317c-0.283-0.237-0.414-0.603-0.344-0.962c0.064-0.358,0.328-0.656,0.678-0.771l7.861-2.572
				l-0.484-2.865l-0.796-3.363l-8.243,0.729c-0.354,0.037-0.716-0.137-0.924-0.445c-0.205-0.301-0.231-0.692-0.066-1.019
				l3.737-7.381l-2.366-1.684l-2.944-1.816L147.628,131c-0.235,0.28-0.608,0.42-0.963,0.349c-0.357-0.072-0.655-0.336-0.771-0.682
				l-2.572-7.861l-2.862,0.487l-3.362,0.795l0.724,8.24c0.031,0.363-0.134,0.725-0.439,0.926c-0.303,0.204-0.692,0.232-1.021,0.064
				l-7.381-3.731l-1.683,2.364l-1.814,2.938l6.34,5.317c0.279,0.236,0.414,0.607,0.344,0.969c-0.07,0.354-0.33,0.652-0.676,0.768
				l-7.858,2.572l0.485,2.861l0.792,3.367l8.243-0.725c0.374-0.039,0.719,0.131,0.926,0.439c0.204,0.302,0.231,0.689,0.064,1.021
				l-3.737,7.381l2.366,1.681l2.939,1.813l5.318-6.34C141.219,155.781,141.505,155.649,141.801,155.649z M144.322,151.939
				c-3.981,0-7.453-2.838-8.25-6.742c-0.452-2.204-0.016-4.456,1.224-6.332c1.238-1.877,3.136-3.158,5.34-3.609
				c0.56-0.117,1.134-0.18,1.701-0.18c3.981,0,7.452,2.834,8.252,6.738c0.449,2.208,0.016,4.456-1.225,6.334
				c-1.24,1.882-3.134,3.163-5.34,3.615C145.459,151.876,144.889,151.939,144.322,151.939z"/>
		</g>
	</g>
	<g>
		<g>
			<path fill="#FFFFFF" d="M173.147,165.182l-0.323-1.923l-0.523-2.211l-4.712,0.415l2.135-4.217l-1.59-1.129l-1.934-1.195
				l-3.038,3.627l-1.474-4.493l-1.921,0.325l-2.211,0.521l0.413,4.713l-4.216-2.136l-1.128,1.591l-1.193,1.932l3.623,3.038
				l-4.491,1.473l0.325,1.922l0.523,2.213l4.711-0.415l-2.134,4.217l1.587,1.128l1.934,1.196l3.04-3.625l1.471,4.492l1.922-0.327
				l2.213-0.52l-0.416-4.714l4.217,2.134l1.129-1.59l1.193-1.933l-3.625-3.038L173.147,165.182z M162.625,169.108
				c-2.076,0.422-4.102-0.915-4.527-2.989c-0.425-2.078,0.912-4.104,2.986-4.53c2.076-0.424,4.104,0.913,4.528,2.989
				C166.037,166.653,164.7,168.68,162.625,169.108z"/>
			<path fill="#FFFFFF" d="M160.548,171.626c0.032,0,0.066,0.004,0.099,0.011c0.186,0.037,0.338,0.171,0.397,0.352l1.331,4.063
				l1.482-0.252l1.738-0.411l-0.375-4.261c-0.017-0.188,0.071-0.373,0.226-0.477c0.156-0.108,0.36-0.12,0.529-0.035l3.818,1.93
				l0.87-1.221l0.937-1.521l-3.278-2.749c-0.146-0.123-0.214-0.312-0.178-0.498c0.033-0.185,0.169-0.339,0.351-0.398l4.064-1.33
				l-0.25-1.481l-0.412-1.739l-4.263,0.377c-0.183,0.019-0.37-0.071-0.478-0.23c-0.105-0.156-0.119-0.358-0.034-0.527l1.932-3.816
				l-1.223-0.87l-1.522-0.939l-2.749,3.279c-0.122,0.146-0.314,0.218-0.498,0.181c-0.185-0.037-0.338-0.174-0.399-0.353l-1.33-4.065
				l-1.48,0.252l-1.738,0.412l0.374,4.26c0.016,0.188-0.069,0.375-0.227,0.479c-0.157,0.105-0.358,0.121-0.528,0.033l-3.817-1.929
				l-0.87,1.223l-0.938,1.519l3.278,2.75c0.145,0.122,0.214,0.314,0.178,0.501c-0.036,0.184-0.17,0.338-0.35,0.396l-4.063,1.33
				l0.251,1.48l0.41,1.74l4.262-0.374c0.193-0.021,0.372,0.067,0.479,0.227c0.105,0.156,0.12,0.356,0.033,0.528l-1.932,3.816
				l1.224,0.869l1.52,0.938l2.75-3.278C160.247,171.694,160.396,171.626,160.548,171.626z M161.852,169.707
				c-2.059,0-3.854-1.467-4.266-3.486c-0.234-1.14-0.008-2.304,0.633-3.273c0.64-0.971,1.621-1.633,2.761-1.867
				c0.29-0.061,0.586-0.092,0.88-0.092c2.058,0,3.853,1.465,4.267,3.483c0.232,1.142,0.008,2.305-0.634,3.275
				c-0.641,0.973-1.62,1.636-2.762,1.869C162.44,169.675,162.145,169.707,161.852,169.707z"/>
		</g>
	</g>
</g>
<rect x="65.25" y="151.988" fill="#FFFFFF" width="12" height="20.512"/>
</svg>
