<?xml version="1.0" encoding="utf-8"?>
<!-- Generator: Adobe Illustrator 16.0.0, SVG Export Plug-In . SVG Version: 6.00 Build 0)  -->
<!DOCTYPE svg PUBLIC "-//W3C//DTD SVG 1.1//EN" "http://www.w3.org/Graphics/SVG/1.1/DTD/svg11.dtd">
<svg version="1.1" id="Layer_1" xmlns="http://www.w3.org/2000/svg" xmlns:xlink="http://www.w3.org/1999/xlink" x="0px" y="0px"
	 width="101.87px" height="67.701px" viewBox="0 0 101.87 67.701" enable-background="new 0 0 101.87 67.701" xml:space="preserve">
<g>
	<circle fill="#37438C" cx="16.914" cy="16.915" r="16.914"/>
	<path fill="#FFFFFF" d="M21.488,5.878h-3.725c-1.913,0-4.052,1.765-4.052,4.128v3.432h-2.982c-0.189,0-0.344,0.154-0.344,0.345
		v3.477c0,0.19,0.154,0.344,0.344,0.344h2.982v9.748c0,0.189,0.153,0.344,0.345,0.344h3.739c0.188,0,0.344-0.155,0.344-0.344v-9.748
		h3.011c0.189,0,0.345-0.154,0.345-0.344v-3.477c0-0.191-0.155-0.345-0.345-0.345H18.14v-2.518c0-0.602,0.933-1.188,1.631-1.188
		h1.718c0.19,0,0.345-0.155,0.345-0.345V6.222C21.833,6.032,21.679,5.878,21.488,5.878z"/>
</g>
<g>
	<circle fill="#37438C" cx="50.993" cy="16.916" r="16.914"/>
	<path fill-rule="evenodd" clip-rule="evenodd" fill="#FFFFFF" d="M55.613,9.235c0.282,0,0.566,0,0.849,0
		c0.032,0.016,0.061,0.041,0.094,0.045c0.962,0.144,1.793,0.546,2.513,1.201c0.094,0.088,0.319,0.107,0.45,0.063
		c0.678-0.229,1.346-0.488,2.018-0.738c0.101-0.038,0.193-0.091,0.29-0.136c0.03,0.028,0.06,0.061,0.087,0.09
		c-0.238,0.388-0.456,0.789-0.722,1.158c-0.265,0.366-0.577,0.702-0.853,1.037c0.619-0.161,1.321-0.342,2.064-0.535
		c-0.481,0.703-1.031,1.298-1.681,1.787c-0.29,0.216-0.373,0.455-0.381,0.803c-0.011,0.646-0.03,1.301-0.141,1.935
		c-1.649,9.449-11.281,12.781-18.285,8.855c-0.113-0.064-0.219-0.138-0.329-0.206c1.127,0.021,2.198-0.083,3.247-0.391
		c1.043-0.307,2.006-0.773,2.952-1.531c-0.98-0.076-1.786-0.335-2.493-0.86c-0.71-0.526-1.216-1.2-1.517-2.036
		c0.638-0.035,1.195-0.063,1.752-0.092c0.005-0.047,0.009-0.092,0.014-0.139c-0.954-0.256-1.76-0.738-2.376-1.508
		c-0.612-0.767-0.936-1.634-0.947-2.682c0.615,0.224,1.168,0.479,1.808,0.41c-0.848-0.695-1.444-1.538-1.673-2.602
		c-0.225-1.054-0.113-2.067,0.459-3.073c2.393,2.73,5.317,4.263,8.947,4.486c-0.018-0.233-0.024-0.375-0.04-0.515
		c-0.24-2.197,1.158-4.179,3.312-4.69C55.225,9.325,55.419,9.28,55.613,9.235z"/>
</g>
<g>
	<circle fill="#37438C" cx="84.956" cy="16.915" r="16.914"/>
	<g>
		<path fill-rule="evenodd" clip-rule="evenodd" fill="#FFFFFF" d="M85.521,8.061c1.146,0.88,1.574,2.062,1.583,3.416
			c0.011,1.142-0.501,2.068-1.322,2.835c-0.415,0.389-0.863,0.743-1.251,1.158c-0.534,0.567-0.534,1.218,0.038,1.758
			c0.631,0.594,1.33,1.119,1.992,1.682c0.902,0.769,1.628,1.646,1.813,2.873c0.229,1.504-0.189,2.778-1.317,3.796
			c-1.059,0.954-2.345,1.382-3.742,1.571c-1.714,0.232-3.391,0.12-5.021-0.46c-1.104-0.395-2.071-0.992-2.644-2.074
			c-0.605-1.14-0.342-2.91,0.509-3.904c0.898-1.051,2.094-1.532,3.398-1.763c0.886-0.156,1.79-0.209,2.704-0.31
			c-0.767-0.728-0.948-1.632-0.486-2.653c-0.548-0.074-1.06-0.117-1.561-0.212c-1.808-0.343-3.157-1.667-3.47-3.458
			c-0.412-2.343,0.74-4.518,3.207-5.298c0.68-0.217,1.413-0.344,2.126-0.359c1.977-0.049,3.954-0.018,5.933-0.017
			c0.059,0,0.119,0.011,0.278,0.023c-0.228,0.254-0.438,0.443-0.595,0.671c-0.411,0.596-0.949,0.854-1.671,0.729
			C85.861,8.037,85.688,8.061,85.521,8.061z M81.932,19.404c-0.218,0.021-0.544,0.037-0.863,0.093
			c-1.129,0.195-2.117,0.674-2.852,1.575c-0.439,0.537-0.705,1.17-0.633,1.875c0.114,1.14,0.721,1.997,1.71,2.538
			c1.768,0.966,3.604,0.862,5.354,0.032c1.978-0.939,2.289-3.33,0.731-4.879C84.453,19.718,83.293,19.441,81.932,19.404z
			 M82.792,15.038c0.681,0.05,1.508-0.626,1.785-1.643c0.159-0.586,0.188-1.175,0.099-1.787c-0.194-1.34-0.689-2.513-1.764-3.373
			c-1.295-1.037-2.949-0.716-3.634,0.767c-0.703,1.524-0.445,2.997,0.413,4.371C80.32,14.376,81.23,14.988,82.792,15.038z"/>
		<path fill-rule="evenodd" clip-rule="evenodd" fill="#FFFFFF" d="M92.184,11.12c-0.859,0-1.659-0.019-2.456,0.008
			c-0.333,0.009-0.404-0.105-0.401-0.417c0.011-1.012-0.001-1.012,1.013-1.012c0.557,0,1.116-0.003,1.673-0.006
			c0.034,0,0.069-0.018,0.139-0.033c0-0.89,0-1.782,0-2.705c0.461,0,0.889,0,1.352,0c0,0.89,0,1.782,0,2.744
			c0.197,0,0.361,0,0.524,0c0.655,0,1.312,0.006,1.967-0.003c0.214-0.002,0.306,0.064,0.298,0.292
			c-0.015,0.359-0.004,0.721-0.004,1.118c-0.928,0-1.82,0-2.748,0c0,0.928,0,1.821,0,2.746c-0.464,0-0.892,0-1.355,0
			C92.184,12.967,92.184,12.074,92.184,11.12z"/>
	</g>
</g>
<g>
	<circle fill="#333333" cx="16.914" cy="50.787" r="16.914"/>
	<path fill="#FFFFFF" d="M21.488,39.75h-3.725c-1.913,0-4.052,1.766-4.052,4.129v3.432h-2.982c-0.189,0-0.344,0.154-0.344,0.344
		v3.479c0,0.189,0.154,0.344,0.344,0.344h2.982v9.748c0,0.189,0.153,0.344,0.345,0.344h3.739c0.188,0,0.344-0.154,0.344-0.344
		v-9.748h3.011c0.189,0,0.345-0.154,0.345-0.344v-3.479c0-0.189-0.155-0.344-0.345-0.344H18.14v-2.518
		c0-0.602,0.933-1.189,1.631-1.189h1.718c0.19,0,0.345-0.154,0.345-0.344v-3.165C21.833,39.904,21.679,39.75,21.488,39.75z"/>
</g>
<g>
	<path fill="#333333" d="M67.907,50.916c0,9.34-7.572,16.912-16.913,16.912c-9.343,0-16.915-7.572-16.915-16.912
		C34.079,41.572,41.651,34,50.994,34C60.335,34,67.907,41.572,67.907,50.916z"/>
	<path fill-rule="evenodd" clip-rule="evenodd" fill="#FFFFFF" d="M55.613,43.234c0.282,0,0.566,0,0.849,0
		c0.032,0.016,0.061,0.041,0.094,0.045c0.962,0.145,1.793,0.547,2.513,1.201c0.094,0.088,0.319,0.107,0.45,0.064
		c0.678-0.229,1.346-0.488,2.018-0.738c0.101-0.039,0.193-0.092,0.29-0.137c0.03,0.029,0.06,0.061,0.087,0.09
		c-0.238,0.389-0.456,0.789-0.722,1.158c-0.265,0.367-0.577,0.703-0.853,1.037c0.619-0.16,1.321-0.342,2.064-0.535
		c-0.481,0.703-1.031,1.299-1.681,1.787c-0.29,0.217-0.373,0.455-0.381,0.803c-0.011,0.646-0.03,1.301-0.141,1.936
		c-1.649,9.449-11.281,12.781-18.285,8.855c-0.113-0.064-0.219-0.139-0.329-0.207c1.127,0.021,2.198-0.082,3.247-0.391
		c1.043-0.307,2.006-0.773,2.952-1.531c-0.98-0.076-1.786-0.334-2.493-0.859c-0.71-0.527-1.216-1.201-1.517-2.037
		c0.638-0.035,1.195-0.063,1.752-0.092c0.005-0.047,0.009-0.092,0.014-0.139c-0.954-0.256-1.76-0.738-2.376-1.508
		c-0.612-0.766-0.936-1.633-0.947-2.682c0.615,0.225,1.168,0.479,1.808,0.41c-0.848-0.695-1.444-1.537-1.673-2.602
		c-0.225-1.053-0.113-2.066,0.459-3.072c2.393,2.73,5.317,4.262,8.947,4.486c-0.018-0.234-0.024-0.375-0.04-0.516
		c-0.24-2.197,1.158-4.178,3.312-4.689C55.225,43.324,55.419,43.279,55.613,43.234z"/>
</g>
<g>
	<circle fill="#333333" cx="84.956" cy="50.914" r="16.914"/>
	<g>
		<path fill-rule="evenodd" clip-rule="evenodd" fill="#FFFFFF" d="M85.521,42.061c1.146,0.879,1.574,2.061,1.583,3.416
			c0.011,1.141-0.501,2.068-1.322,2.834c-0.415,0.389-0.863,0.744-1.251,1.158c-0.534,0.568-0.534,1.219,0.038,1.758
			c0.631,0.594,1.33,1.119,1.992,1.682c0.902,0.77,1.628,1.646,1.813,2.873c0.229,1.504-0.189,2.779-1.317,3.797
			c-1.059,0.953-2.345,1.381-3.742,1.57c-1.714,0.232-3.391,0.121-5.021-0.459c-1.104-0.395-2.071-0.992-2.644-2.074
			c-0.605-1.141-0.342-2.91,0.509-3.904c0.898-1.051,2.094-1.533,3.398-1.764c0.886-0.156,1.79-0.209,2.704-0.309
			c-0.767-0.729-0.948-1.633-0.486-2.654c-0.548-0.074-1.06-0.117-1.561-0.211c-1.808-0.344-3.157-1.668-3.47-3.459
			c-0.412-2.342,0.74-4.518,3.207-5.297c0.68-0.216,1.413-0.343,2.126-0.359c1.977-0.049,3.954-0.018,5.933-0.018
			c0.059,0,0.119,0.012,0.278,0.023c-0.228,0.254-0.438,0.443-0.595,0.671c-0.411,0.596-0.949,0.854-1.671,0.729
			C85.861,42.037,85.688,42.061,85.521,42.061z M81.932,53.404c-0.218,0.021-0.544,0.037-0.863,0.092
			c-1.129,0.195-2.117,0.674-2.852,1.576c-0.439,0.537-0.705,1.17-0.633,1.875c0.114,1.139,0.721,1.996,1.71,2.537
			c1.768,0.967,3.604,0.863,5.354,0.033c1.978-0.939,2.289-3.33,0.731-4.879C84.453,53.717,83.293,53.441,81.932,53.404z
			 M82.792,49.037c0.681,0.051,1.508-0.625,1.785-1.643c0.159-0.586,0.188-1.174,0.099-1.787c-0.194-1.34-0.689-2.512-1.764-3.373
			c-1.295-1.037-2.949-0.715-3.634,0.768c-0.703,1.523-0.445,2.996,0.413,4.371C80.32,48.375,81.23,48.988,82.792,49.037z"/>
		<path fill-rule="evenodd" clip-rule="evenodd" fill="#FFFFFF" d="M92.184,45.119c-0.859,0-1.659-0.018-2.456,0.008
			c-0.333,0.01-0.404-0.105-0.401-0.416c0.011-1.012-0.001-1.012,1.013-1.012c0.557,0,1.116-0.004,1.673-0.006
			c0.034,0,0.069-0.018,0.139-0.033c0-0.891,0-1.783,0-2.705c0.461,0,0.889,0,1.352,0c0,0.888,0,1.781,0,2.744
			c0.197,0,0.361,0,0.524,0c0.655,0,1.312,0.006,1.967-0.004c0.214-0.002,0.306,0.064,0.298,0.293
			c-0.015,0.359-0.004,0.721-0.004,1.117c-0.928,0-1.82,0-2.748,0c0,0.928,0,1.822,0,2.746c-0.464,0-0.892,0-1.355,0
			C92.184,46.967,92.184,46.074,92.184,45.119z"/>
	</g>
</g>
</svg>
